<svg width="18" height="18" viewBox="0 0 18 18" fill="none" xmlns="http://www.w3.org/2000/svg">
<path fill-rule="evenodd" clip-rule="evenodd" d="M8.76492 13.023C6.02276 13.023 3.7998 10.8 3.7998 8.05789C3.7998 5.31573 6.02276 3.09277 8.76492 3.09277C11.5071 3.09277 13.73 5.31573 13.73 8.05789C13.73 9.17313 13.3623 10.2025 12.7416 11.0314L14.2315 12.5213C14.5085 12.7983 14.5085 13.2474 14.2315 13.5244C13.9545 13.8014 13.5054 13.8014 13.2284 13.5244L11.7385 12.0345C10.9096 12.6553 9.8802 13.023 8.76492 13.023ZM8.7652 11.6046C10.7239 11.6046 12.3117 10.0168 12.3117 8.05809C12.3117 6.0994 10.7239 4.51157 8.7652 4.51157C6.80652 4.51157 5.21869 6.0994 5.21869 8.05809C5.21869 10.0168 6.80652 11.6046 8.7652 11.6046Z" fill="#051033" fill-opacity="0.01"/>
<mask id="mask0_33169_63773" style="mask-type:luminance" maskUnits="userSpaceOnUse" x="3" y="3" width="12" height="11">
<path fill-rule="evenodd" clip-rule="evenodd" d="M8.76492 13.023C6.02276 13.023 3.7998 10.8 3.7998 8.05789C3.7998 5.31573 6.02276 3.09277 8.76492 3.09277C11.5071 3.09277 13.73 5.31573 13.73 8.05789C13.73 9.17313 13.3623 10.2025 12.7416 11.0314L14.2315 12.5213C14.5085 12.7983 14.5085 13.2474 14.2315 13.5244C13.9545 13.8014 13.5054 13.8014 13.2284 13.5244L11.7385 12.0345C10.9096 12.6553 9.8802 13.023 8.76492 13.023ZM8.7652 11.6046C10.7239 11.6046 12.3117 10.0168 12.3117 8.05809C12.3117 6.0994 10.7239 4.51157 8.7652 4.51157C6.80652 4.51157 5.21869 6.0994 5.21869 8.05809C5.21869 10.0168 6.80652 11.6046 8.7652 11.6046Z" fill="white"/>
</mask>
<g mask="url(#mask0_33169_63773)">
<path fill-rule="evenodd" clip-rule="evenodd" d="M0.962891 0.255859H17.9861V17.2791H0.962891V0.255859Z" fill="#8C95A5"/>
</g>
</svg>
