<?xml version="1.0" encoding="UTF-8"?><svg id="tanuki-logo" xmlns="http://www.w3.org/2000/svg" viewBox="0 0 48 48"><defs><style>.cls-1{fill:#0f72d3;fill-rule:evenodd;}</style></defs><path class="cls-1" d="m24.61,17.43c-.37.23-.85.23-1.22,0L1.87,4.03c-.77-.48-1.77.07-1.77.98v24.85c0,.41.22.79.58,1l3.66,2.11,9.03-5.21v-8.5s5.56,3.48,5.56,3.48v8.23s-9.03,5.21-9.03,5.21l13.52,7.81c.36.21.8.21,1.16,0l13.52-7.81-9.03-5.21v-8.23s5.56-3.48,5.56-3.48v8.5s9.03,5.21,9.03,5.21l3.66-2.11c.36-.21.58-.59.58-1V5.01c0-.91-1-1.46-1.77-.98l-21.52,13.4Zm-.61,22c2.15,0,3.9-.97,3.9-3.06s-1.75-2.6-3.9-2.6-3.9.51-3.9,2.6,1.75,3.06,3.9,3.06Z"/></svg>